<svg xmlns="http://www.w3.org/2000/svg" width="100" height="100" viewBox="0 0 100 100"><path fill="#cb9bf7" d="M50 0a50 50 0 1 1 0 100A50 50 0 0 1 50 0z"/><path d="M60 100L21 67s7.02-.26 14-6c13.32-10.96 31-31 31-31l6-8 28 28v50z"/><path fill="#fff" d="M67.45 33.02c-2.52 3.04-9.42 11.44-14.9 18.1l-6.97-7.01L62.5 29.19c5.02-4.39 9.41-7 10.37-5.93.6.6-1 4.42-5.41 9.76zM51.33 52.6l-5.07 6.17-8.24-7.98 6.14-5.43zm-6.28 7.64l-8.44-8.17c-.5.04-8.7.76-8.7 8.78 0 8.26-8.92 7.15-8.92 7.15s21.26 10.48 26.04-7.76v.02l.02-.02z"/></svg>