<svg xmlns="http://www.w3.org/2000/svg" width="100" height="100" viewBox="0 0 100 100"><path fill="#e0c339" d="M50 0a50 50 0 1 1 0 100A50 50 0 0 1 50 0z"/><path d="M65 100L25 56l43-30 32 35v39z"/><path fill="#fff" d="M61.97 42.57a8.8 8.8 0 0 1-4.8-1.44L41.9 50.17v.03l15.41 8.59a8.78 8.78 0 0 1 4.65-1.36c5 0 9.04 4.16 9.04 9.28A9.17 9.17 0 0 1 61.97 76a9.17 9.17 0 0 1-8.82-11.3L40.2 57.47a8.92 8.92 0 0 1-7.16 3.67c-5 0-9.04-4.15-9.04-9.28a9.17 9.17 0 0 1 9.04-9.29c1.77 0 3.4.54 4.8 1.44l15.26-9.04A9.17 9.17 0 0 1 61.97 24c5 0 9.04 4.16 9.04 9.29a9.17 9.17 0 0 1-9.04 9.28z"/></svg>