<svg xmlns="http://www.w3.org/2000/svg" width="70" height="40" viewBox="0 0 70 40"><path d="M0 40V0h70v40z"/><path fill="#fff" d="M46.36 13.81l-3.5 6.06a2 2 0 0 1-2.73.73l-.87-.5 1-1.73a1 1 0 0 0 1.37-.37l2.5-4.33a1 1 0 0 0-.37-1.36l-3.46-2a1 1 0 0 0-1.37.36L36.43 15a1 1 0 0 0 .37 1.37l-1 1.73-.87-.5a2 2 0 0 1-.73-2.73l3.5-6.06a1.99 1.99 0 0 1 2.73-.73l5.2 3a2 2 0 0 1 .73 2.73zM34.53 24.3a1 1 0 0 1-.37-1.37l4-6.93a1 1 0 0 1 1.74 1l-4 6.93a1 1 0 0 1-1.37.37zm.27-4.47l-.87-.5a2 2 0 0 0-2.73.74l-3.5 6.06a2 2 0 0 0 .73 2.73l5.2 3a2 2 0 0 0 2.73-.73l3.5-6.06c.55-.96.23-2.18-.73-2.74l-.87-.5-1 1.74a1 1 0 0 1 .37 1.36l-2.5 4.33a1 1 0 0 1-1.37.37l-3.46-2a1 1 0 0 1-.37-1.37l2.5-4.33a1 1 0 0 1 1.37-.36z"/></svg>